<?xml version="1.0" encoding="UTF-8"?><svg id="_レイヤー_2" xmlns="http://www.w3.org/2000/svg" viewBox="0 0 330.85 192.04"><defs><style>.cls-1{fill:#fff;}</style></defs><g id="_レイヤー_1-2"><g><g><path class="cls-1" d="m0,137.91h22.22c4.36,0,7.7.96,10.01,2.88,2.31,1.92,3.47,4.33,3.47,7.23,0,2.42-.81,4.47-2.42,6.16-1.61,1.69-4.04,3.02-7.29,4,4.02.85,7.03,2.18,9.03,4,2.01,1.81,3.01,4.11,3.01,6.88,0,2.11-.57,3.99-1.71,5.63-1.15,1.63-3.05,3.01-5.71,4.15-2.66,1.13-5.68,1.7-9.06,1.7H0v-2.16h3.52c1.06,0,1.83-.17,2.32-.52.49-.35.74-.74.74-1.18v-34.15c0-.81-.24-1.41-.72-1.83-.48-.41-1.18-.62-2.1-.62H0v-2.16Zm12.74,19.57h8.07c2.48,0,4.45-.73,5.92-2.19,1.47-1.46,2.21-3.85,2.21-7.17,0-2.05-.35-3.65-1.06-4.8-.7-1.15-1.72-1.99-3.05-2.52-1.33-.53-3.65-.79-6.93-.79-2.32,0-3.77.17-4.32.5-.56.33-.84.93-.84,1.77v15.2Zm0,2.16v16.43c0,.76.23,1.34.68,1.73.45.38,1.27.57,2.44.57h5.16c3.42,0,5.95-.75,7.58-2.26,1.63-1.51,2.45-3.86,2.45-7.05,0-2.92-.85-5.22-2.54-6.9-1.69-1.68-4.03-2.52-7-2.52h-8.76Z"/><path class="cls-1" d="m54.5,152.72c3.63,0,6.68,1.31,9.15,3.94,2.47,2.62,3.71,6.08,3.71,10.36,0,2.96-.55,5.48-1.66,7.56-1.11,2.09-2.68,3.73-4.72,4.94-2.05,1.21-4.25,1.82-6.61,1.82-3.5,0-6.46-1.33-8.89-3.98-2.43-2.65-3.65-6.09-3.65-10.32s1.22-7.69,3.66-10.35c2.44-2.65,5.44-3.98,9.02-3.98Zm0,2.05c-2.15,0-3.92.97-5.3,2.93-1.38,1.95-2.08,5.03-2.08,9.24s.69,7.42,2.06,9.39c1.37,1.98,3.15,2.97,5.32,2.97s4.07-.99,5.46-2.97c1.39-1.98,2.09-5.21,2.09-9.71,0-4.17-.69-7.18-2.06-9.05-1.37-1.87-3.2-2.8-5.49-2.8Z"/><path class="cls-1" d="m80.52,153.04v17.9c0,2.19.55,3.88,1.65,5.07,1.1,1.19,2.53,1.79,4.27,1.79,2.15,0,3.97-.87,5.48-2.61,1.5-1.74,2.26-3.91,2.26-6.53v-10.11c0-.93-.33-1.64-.99-2.15-.67-.51-1.94-.79-3.82-.85v-2.01l9.48-.5v22.16c0,1.02.29,1.8.86,2.35.58.55,1.39.82,2.42.82h1.7v1.93l-9.08.2-.58-5.3c-1.61,1.91-3.23,3.33-4.86,4.29-1.63.96-3.28,1.44-4.95,1.44-2.43,0-4.48-.82-6.13-2.45-1.67-1.62-2.5-4.35-2.5-8.21v-11.73c0-1.04-.41-1.83-1.24-2.37-.58-.38-1.76-.59-3.55-.64v-2.01l9.57-.5Z"/><path class="cls-1" d="m117.53,137.42v39.14c0,.54.16.95.49,1.24.48.38,1.07.57,1.76.57h2.86v2.16h-15.31v-2.16h2.71c.88,0,1.54-.21,1.97-.63.43-.42.65-1.02.65-1.79v-32.86c0-.96-.26-1.66-.78-2.11-.71-.61-1.59-.92-2.62-.92h-2.42v-2.16l10.69-.49Z"/><path class="cls-1" d="m154.45,177.57l1.04,1.61c-1.4,1.44-2.96,2.16-4.67,2.16-1.3,0-2.4-.36-3.3-1.07-.89-.71-1.67-1.96-2.35-3.75-1.82,1.92-3.43,3.2-4.81,3.85-1.38.64-3.05.96-4.99.96-2.76,0-4.87-.59-6.31-1.79-1.44-1.19-2.16-2.72-2.16-4.58,0-2.81,1.64-5.13,4.94-6.99,3.3-1.86,7.68-3.09,13.16-3.71v-4.09c0-1.46-.58-2.7-1.76-3.74-1.17-1.04-2.66-1.56-4.47-1.56-1.67,0-3.11.34-4.32,1.03-.86.52-1.29,1.03-1.29,1.53,0,.29.23.74.69,1.35.56.77.83,1.45.83,2.04,0,.87-.28,1.57-.83,2.12-.56.55-1.28.82-2.19.82-.96,0-1.76-.32-2.4-.98-.65-.66-.96-1.49-.96-2.51,0-1.9,1.07-3.64,3.21-5.22,2.15-1.57,4.96-2.36,8.43-2.36,3.21,0,5.66.69,7.35,2.08,1.69,1.4,2.54,3.1,2.54,5.1v14.76c0,1.3.21,2.27.64,2.88.42.64.97.95,1.64.95.75,0,1.54-.31,2.37-.92Zm-9.45-11.39c-4.88.67-8.34,1.77-10.38,3.28-1.52,1.16-2.28,2.79-2.28,4.9,0,1.48.39,2.63,1.18,3.47.79.84,1.82,1.25,3.09,1.25,2.26,0,4.23-.86,5.89-2.58,1.66-1.72,2.5-3.88,2.5-6.47v-3.87Z"/><path class="cls-1" d="m158.74,153.53l8.96-.55c.37,1.69.64,3.67.81,5.94,1.21-1.96,2.64-3.43,4.28-4.41,1.64-.98,3.5-1.47,5.57-1.47,1.79,0,3.28.36,4.5,1.06,1.21.7,2.18,1.81,2.91,3.33.73,1.52,1.09,3.22,1.09,5.1v13.14c0,.98.22,1.67.66,2.09.44.41,1.18.62,2.22.62h1.9v2.16h-14.24v-2.16h1.35c1.27,0,2.16-.2,2.65-.6.5-.4.75-1.01.75-1.81v-11.56c0-2.51-.39-4.38-1.15-5.59-1.08-1.73-2.71-2.59-4.9-2.59s-3.98.88-5.44,2.62c-1.45,1.75-2.17,4.03-2.17,6.83v10c0,.98.23,1.67.68,2.09.45.41,1.2.62,2.23.62h1.88v2.16h-14.29v-2.16h1.87c.94,0,1.66-.19,2.15-.57.49-.39.74-.87.74-1.44v-17.43c0-1.16-.31-2.03-.94-2.63-.63-.59-1.52-.89-2.69-.89h-1.39v-1.87Z"/><path class="cls-1" d="m215.49,155.06c1.92-1.94,3.68-2.91,5.3-2.91.96,0,1.76.3,2.39.92.63.61.95,1.36.95,2.25,0,.71-.21,1.3-.64,1.77-.43.47-.94.71-1.52.71-1.1,0-1.84-.67-2.22-2.02-.16-.58-.41-.86-.78-.86-.65,0-1.36.43-2.13,1.3.83,1.13,1.39,2.12,1.7,2.96.31.83.46,1.73.46,2.69,0,1.67-.4,3.15-1.21,4.42-.81,1.28-2.15,2.41-4.02,3.39-1.88.98-3.67,1.47-5.38,1.47h-3.14c-2.23,0-3.71.23-4.44.7-.73.48-1.09,1.18-1.09,2.1,0,.75.3,1.33.89,1.73.6.4,1.72.61,3.37.61l7.12-.14c3.59,0,6.18.6,7.76,1.8,1.59,1.21,2.38,2.85,2.38,4.94,0,2.31-.9,4.25-2.71,5.82-2.52,2.23-6.27,3.34-11.26,3.34-4.13,0-7.2-.76-9.2-2.28-1.58-1.19-2.36-2.53-2.36-4.01,0-1.13.5-2.17,1.51-3.11,1.01-.94,2.7-1.65,5.08-2.11-1.9-.46-3.33-1.14-4.29-2.04-.96-.89-1.44-2-1.44-3.33,0-1.23.39-2.3,1.17-3.21.78-.91,2.13-1.69,4.05-2.35-1.64-.9-2.86-1.99-3.69-3.27-.83-1.28-1.24-2.74-1.24-4.4,0-2.61,1.02-4.8,3.08-6.57,2.06-1.77,4.73-2.66,8.01-2.66,1.34,0,2.64.19,3.89.58,1.25.38,2.46.97,3.63,1.76Zm-5.88,25.5c-3.54,0-6.06.49-7.56,1.47-1.51.98-2.26,2.16-2.26,3.54,0,1.31.56,2.34,1.7,3.08,1.5,1,3.63,1.5,6.4,1.5,3.31,0,5.79-.54,7.46-1.64,1.67-1.1,2.51-2.32,2.51-3.66,0-.79-.26-1.53-.78-2.2-.52-.69-1.35-1.2-2.48-1.56-1.14-.36-2.8-.53-4.99-.53Zm-1.7-25.99c-1.71,0-3.13.63-4.24,1.89-1.11,1.26-1.67,3.02-1.67,5.29,0,2.42.56,4.3,1.67,5.63,1.12,1.33,2.54,2,4.27,2s3.14-.64,4.25-1.94c1.11-1.29,1.66-3.15,1.66-5.58,0-2.24-.56-4.02-1.69-5.33-1.12-1.3-2.54-1.96-4.25-1.96Z"/><path class="cls-1" d="m251.83,167.22h-19.34c.1,4.11.86,7.01,2.31,8.7,1.65,1.9,3.76,2.86,6.31,2.86,3.76,0,6.79-2.14,9.08-6.43l1.87.81c-2.81,5.46-6.86,8.18-12.16,8.18-3.61,0-6.65-1.3-9.12-3.92-2.47-2.61-3.7-5.96-3.7-10.03,0-4.38,1.21-7.92,3.65-10.62,2.43-2.69,5.42-4.05,8.98-4.05,2.61,0,4.87.68,6.78,2.02,1.9,1.35,3.33,3.27,4.29,5.79.67,1.77,1.03,4,1.07,6.69Zm-19.34-2.05h11.7c.69,0,1.23-.23,1.61-.7.39-.47.58-1.28.58-2.41,0-2.11-.66-3.91-1.97-5.39-1.32-1.48-2.87-2.22-4.65-2.22-2,0-3.7.89-5.09,2.68-1.39,1.79-2.11,4.47-2.18,8.04Z"/><path class="cls-1" d="m255.58,153.53l9.71-.5v10.93c1.04-3.59,2.29-6.31,3.75-8.16,1.46-1.85,3.26-2.77,5.42-2.77,1.46,0,2.63.45,3.5,1.34.87.89,1.31,2.09,1.31,3.59,0,1.21-.29,2.16-.88,2.82-.58.67-1.33,1.01-2.21,1.01s-1.56-.29-2.09-.87c-.53-.58-.79-1.35-.79-2.33,0-.64.15-1.23.46-1.79.29-.5.43-.8.43-.9,0-.29-.18-.43-.55-.43-.79,0-1.68.46-2.68,1.38-1.38,1.28-2.45,3.06-3.2,5.3-1.15,3.5-1.73,6.29-1.73,8.39v5.79c0,.65.23,1.15.69,1.5.46.35,1.25.52,2.36.52h3.43v2.16h-16.77v-2.16h2.68c.9,0,1.59-.18,2.05-.53.46-.35.69-.78.69-1.28v-17.2c0-1.31-.28-2.26-.84-2.87-.55-.61-1.35-.91-2.39-.91h-2.37v-2.05Z"/><path class="cls-1" d="m281.68,153.53l10.75-.32v23.23c0,.63.15,1.09.46,1.35.44.38,1,.57,1.67.57h3.05v2.16h-15.36v-2.16h2.85c.85,0,1.47-.2,1.86-.62.39-.41.59-1.02.59-1.8v-17.01c0-1.08-.31-1.89-.93-2.43-.61-.55-1.53-.82-2.74-.82h-2.22v-2.16Zm7.49-16.11c.87,0,1.62.33,2.28.98.65.65.97,1.42.97,2.31s-.32,1.61-.95,2.25c-.64.64-1.4.95-2.28.95s-1.65-.32-2.29-.96c-.64-.64-.96-1.4-.96-2.26s.32-1.62.98-2.28c.65-.65,1.41-.98,2.25-.98Z"/><path class="cls-1" d="m326.13,167.22h-19.34c.1,4.11.86,7.01,2.3,8.7,1.66,1.9,3.76,2.86,6.32,2.86,3.77,0,6.79-2.14,9.08-6.43l1.87.81c-2.81,5.46-6.86,8.18-12.16,8.18-3.61,0-6.65-1.3-9.12-3.92-2.47-2.61-3.7-5.96-3.7-10.03,0-4.38,1.21-7.92,3.64-10.62,2.43-2.69,5.43-4.05,8.98-4.05,2.61,0,4.87.68,6.78,2.02,1.9,1.35,3.33,3.27,4.29,5.79.67,1.77,1.03,4,1.07,6.69Zm-19.34-2.05h11.7c.69,0,1.23-.23,1.61-.7.39-.47.58-1.28.58-2.41,0-2.11-.66-3.91-1.97-5.39-1.32-1.48-2.87-2.22-4.66-2.22-2,0-3.69.89-5.09,2.68-1.4,1.79-2.11,4.47-2.17,8.04Z"/></g><g><path class="cls-1" d="m.12,2.32h47.3v5.61h-8.68c-3.04,0-5.02.53-5.95,1.6-.92,1.08-1.39,3.68-1.39,7.82v34.13h50.6V17.36c0-4.29-.44-6.94-1.31-7.94-.88-1-2.94-1.49-6.17-1.49h-8.09V2.32h47.01v5.61h-8.61c-2.14,0-3.65.27-4.53.82-.87.54-1.58,1.49-2.13,2.84-.3.85-.45,3.07-.45,6.66v79.64c0,3.84.32,6.16.97,6.96,1.3,1.7,3.67,2.55,7.11,2.55h7.64v5.61h-47.01v-5.61h8.09c3.19,0,5.36-.88,6.5-2.62.65-.95.98-3.44.98-7.48v-38.47H31.4v39.07c0,3.89.3,6.24.9,7.04,1.24,1.65,3.39,2.47,6.43,2.47h8.68v5.61H.12v-5.61h9.05c1.6,0,2.87-.33,3.82-.97.95-.65,1.65-1.58,2.1-2.77.25-.8.37-2.92.37-6.36V17.36c0-4.14-.46-6.75-1.38-7.82-.93-1.07-2.93-1.6-6.03-1.6H.12V2.32Z"/><path class="cls-1" d="m174.18,0h5.01l39.69,101.26c1.6,4.09,4.87,6.14,9.8,6.14h3.45v5.61h-44.16v-5.61h3.52c4.59,0,7.83-.51,9.73-1.5,1.3-.7,1.94-1.77,1.94-3.22,0-.84-.17-1.75-.52-2.7l-9.16-23.5h-43.78l-5.15,13.47c-1.35,3.59-2.02,6.43-2.02,8.53,0,2.44,1.13,4.54,3.4,6.29,2.27,1.75,5.58,2.62,9.92,2.62h3.74v5.61h-40.11v-5.61c4.29,0,7.68-.94,10.18-2.81,2.49-1.87,4.79-5.43,6.88-10.67L174.18,0Zm-2.19,21.32l-19.88,49.32h39.1l-19.22-49.32Z"/><path class="cls-1" d="m236.1,2.32h51.34v5.61h-12.27c-1.94,0-3.38.51-4.3,1.53-.92,1.02-1.39,2.63-1.39,4.83v87.34c0,2.1.59,3.59,1.76,4.46,1.17.87,3.53,1.31,7.06,1.31h15.54c8.28,0,15.04-2.76,20.3-8.27,5.25-5.51,9.08-15.08,11.47-28.7h5.24l-2.54,42.58h-92.21v-5.61h9.06c3.09,0,5.26-.59,6.51-1.76,1.25-1.17,1.87-3.06,1.87-5.66V13.54c0-1.85-.52-3.24-1.57-4.19-1.04-.95-2.59-1.42-4.64-1.42h-11.23V2.32Z"/></g></g></g></svg>